<?xml version="1.0" standalone="no"?>
<!DOCTYPE svg PUBLIC "-//W3C//DTD SVG 20010904//EN"
 "http://www.w3.org/TR/2001/REC-SVG-20010904/DTD/svg10.dtd">
<svg version="1.0" xmlns="http://www.w3.org/2000/svg"
 width="1060.000000pt" height="1196.000000pt" viewBox="0 0 1060.000000 1196.000000"
 preserveAspectRatio="xMidYMid meet">

<g transform="translate(0.000000,1196.000000) scale(0.100000,-0.100000)"
fill="#000000" stroke="none">
<path d="M3493 9008 c-42 -11 -63 -43 -63 -96 0 -60 33 -92 93 -92 50 0 97 29
97 61 0 26 -24 24 -54 -6 -14 -14 -32 -25 -41 -25 -23 0 -55 37 -55 65 0 28
32 65 55 65 8 0 23 -9 32 -20 34 -39 65 -18 33 23 -23 29 -52 37 -97 25z"/>
<path d="M2666 8928 c-16 -46 -31 -89 -34 -95 -2 -8 5 -13 18 -13 13 0 24 8
27 20 4 16 14 20 43 20 30 0 40 -5 45 -20 4 -12 15 -20 30 -20 l23 0 -34 91
c-19 51 -34 93 -34 95 0 2 -12 4 -28 4 -25 0 -29 -6 -56 -82z m83 -30 c1 -5
-10 -8 -24 -8 -28 0 -30 4 -13 51 l11 33 13 -34 c7 -19 13 -38 13 -42z"/>
<path d="M2840 8940 c-24 -24 -26 -67 -4 -98 22 -31 90 -28 111 5 14 20 14 23
-1 29 -10 4 -22 0 -30 -11 -20 -28 -50 -15 -54 23 -4 35 20 54 41 33 13 -13
47 -15 47 -3 0 17 -37 42 -63 42 -15 0 -36 -9 -47 -20z"/>
<path d="M2980 8890 c0 -63 2 -70 19 -70 17 0 20 8 23 53 2 38 7 52 18 52 11
0 16 -14 20 -50 4 -37 9 -51 23 -53 14 -3 17 4 17 35 0 43 21 80 38 69 7 -4
12 -29 12 -57 0 -42 3 -49 20 -49 18 0 20 7 20 59 0 72 -16 91 -62 73 -22 -8
-35 -8 -48 0 -14 9 -25 9 -44 0 -16 -7 -28 -8 -31 -2 -16 26 -25 4 -25 -60z"/>
<path d="M3230 8940 c-47 -47 -11 -120 59 -120 22 0 44 6 51 15 14 16 13 17
-44 19 -61 2 -58 26 3 26 44 0 51 3 51 20 0 29 -36 60 -70 60 -17 0 -39 -9
-50 -20z m78 -27 c2 -9 -7 -13 -27 -13 -30 0 -39 9 -24 24 11 10 46 3 51 -11z"/>
<path d="M3662 8944 c-16 -11 -22 -25 -22 -53 0 -47 24 -71 71 -71 42 0 55 8
68 43 27 70 -53 126 -117 81z m82 -36 c15 -25 -4 -53 -35 -53 -19 0 -25 6 -27
29 -5 45 38 61 62 24z"/>
<path d="M3807 8953 c-4 -3 -7 -35 -7 -70 0 -56 2 -63 20 -63 17 0 20 7 20 43
0 60 12 75 44 57 29 -15 42 -9 32 15 -8 22 -35 30 -57 17 -11 -7 -20 -8 -24
-2 -7 12 -19 13 -28 3z"/>
<path d="M3940 8865 c0 -88 1 -95 20 -95 16 0 20 7 20 30 0 28 2 29 30 23 42
-8 70 19 70 67 0 57 -53 91 -89 58 -11 -10 -14 -10 -18 0 -3 6 -11 12 -19 12
-11 0 -14 -20 -14 -95z m88 56 c8 -5 12 -21 10 -37 -4 -35 -35 -45 -55 -18
-17 23 -16 29 3 48 18 18 24 19 42 7z"/>
<path d="M1846 8801 c-25 -71 -46 -132 -46 -135 0 -3 14 -6 30 -6 23 0 33 6
40 25 9 22 15 25 64 25 49 0 54 -2 60 -25 5 -21 12 -25 41 -25 l34 0 -39 108
c-63 176 -54 162 -98 162 l-39 0 -47 -129z m118 -18 c7 -21 4 -23 -33 -23
l-40 0 15 43 c26 75 25 74 39 37 7 -19 15 -45 19 -57z"/>
<path d="M2216 7691 c-4 -7 -5 -15 -2 -18 9 -9 19 4 14 18 -4 11 -6 11 -12 0z"/>
<path d="M1800 7615 c0 -43 4 -75 10 -75 6 0 10 32 10 75 0 43 -4 75 -10 75
-6 0 -10 -32 -10 -75z"/>
<path d="M2401 7643 c-25 -17 -29 -74 -7 -92 18 -15 68 -10 74 7 3 10 -2 10
-22 1 -20 -9 -29 -9 -41 1 -26 21 -17 30 30 30 50 0 49 -1 34 34 -14 30 -41
38 -68 19z m48 -16 c13 -17 5 -27 -24 -27 -12 0 -25 3 -28 7 -9 8 12 33 28 33
7 0 18 -6 24 -13z"/>
<path d="M1862 7591 c1 -49 2 -51 5 -14 8 80 59 85 66 6 4 -46 4 -45 3 7 l-1
55 -37 1 -38 1 2 -56z"/>
<path d="M1976 7628 c14 -48 33 -88 42 -88 10 0 47 99 39 106 -3 3 -14 -14
-25 -38 l-19 -43 -13 43 c-7 23 -17 42 -22 42 -5 0 -6 -10 -2 -22z"/>
<path d="M2088 7625 c-17 -38 0 -79 35 -83 36 -4 57 13 57 48 0 48 -9 60 -46
60 -27 0 -37 -5 -46 -25z m72 0 c15 -18 5 -64 -15 -72 -35 -13 -61 47 -33 75
16 16 33 15 48 -3z"/>
<path d="M2210 7595 c0 -30 5 -55 10 -55 6 0 10 25 10 55 0 30 -4 55 -10 55
-5 0 -10 -25 -10 -55z"/>
<path d="M2272 7638 c-7 -7 -12 -26 -12 -43 0 -17 5 -36 12 -43 15 -15 64 -16
73 -1 10 16 -3 23 -18 10 -24 -19 -47 -2 -47 34 0 26 5 35 21 40 13 5 25 2 30
-6 4 -7 11 -10 14 -7 13 12 -6 28 -34 28 -15 0 -32 -5 -39 -12z"/>
<path d="M1911 7328 c-1 -10 -15 -21 -36 -28 -41 -14 -65 -44 -65 -83 0 -44
17 -65 60 -78 39 -12 40 -13 40 -61 0 -26 -4 -48 -9 -48 -16 0 -61 41 -61 56
0 16 -18 18 -38 5 -32 -20 43 -101 92 -101 8 0 16 -12 19 -27 l4 -28 2 26 c1
23 7 27 40 33 108 17 105 151 -3 171 -35 7 -36 9 -36 51 0 51 20 59 45 20 17
-26 55 -25 55 1 0 20 -49 63 -72 63 -10 0 -23 10 -28 23 -6 15 -9 17 -9 5z
m-1 -108 c0 -40 -5 -45 -34 -34 -31 12 -13 74 21 74 9 0 13 -14 13 -40z m61
-110 c10 -6 19 -18 19 -27 0 -23 -29 -53 -52 -53 -15 0 -18 8 -18 45 0 48 11
56 51 35z"/>
<path d="M2125 7295 c-16 -9 -33 -22 -37 -28 -13 -20 -9 -70 8 -88 14 -15 13
-19 -10 -42 -61 -62 -8 -147 91 -147 99 0 148 102 75 156 -13 10 -13 14 1 35
53 75 -43 160 -128 114z m83 -47 c36 -36 -11 -93 -57 -69 -39 21 -21 81 24 81
12 0 26 -5 33 -12z m-5 -119 c42 -22 48 -48 17 -79 -25 -25 -61 -26 -90 -2
-38 31 -11 87 43 91 5 1 18 -4 30 -10z"/>
<path d="M2482 7295 c-21 -9 -38 -27 -47 -49 -19 -45 -19 -46 8 -46 14 0 28
11 39 30 31 55 112 29 93 -31 -4 -11 -31 -33 -61 -50 -67 -38 -94 -71 -94
-115 l0 -34 105 0 c98 0 105 1 105 20 0 18 -7 20 -80 20 -44 0 -80 3 -80 6 0
20 28 47 69 69 90 45 113 101 64 155 -34 36 -76 45 -121 25z"/>
<path d="M2751 7293 c-49 -25 -73 -63 -79 -122 -10 -103 46 -181 128 -181 76
0 130 65 130 157 0 114 -94 191 -179 146z m99 -53 c58 -58 25 -210 -46 -210
-13 0 -36 11 -51 24 -25 22 -28 30 -28 89 0 55 4 69 24 91 30 31 73 34 101 6z"/>
<path d="M3053 7296 c-93 -42 -109 -198 -28 -273 61 -58 150 -40 190 37 22 42
19 138 -5 177 -36 60 -101 84 -157 59z m102 -61 c42 -41 33 -156 -14 -192 -40
-31 -94 -3 -112 56 -33 111 56 207 126 136z"/>
<path d="M3363 7156 c-23 -20 -28 -32 -28 -71 0 -39 5 -51 28 -71 36 -31 62
-30 92 1 19 18 25 35 25 70 0 35 -6 52 -25 70 -30 31 -56 32 -92 1z m81 -28
c9 -12 16 -32 16 -43 0 -29 -28 -65 -50 -65 -22 0 -50 36 -50 65 0 29 28 65
50 65 10 0 26 -10 34 -22z"/>
<path d="M3552 7173 c-18 -7 -42 -57 -42 -87 0 -64 51 -107 103 -87 47 18 62
83 32 140 -19 37 -54 50 -93 34z m66 -35 c15 -15 16 -72 2 -99 -12 -21 -50
-25 -68 -7 -15 15 -16 72 -2 99 12 21 50 25 68 7z"/>
<path d="M2330 7035 c-10 -12 -10 -18 0 -30 7 -8 19 -15 27 -15 11 0 11 -4 3
-20 -6 -11 -17 -20 -25 -20 -8 0 -15 -4 -15 -10 0 -14 12 -12 38 6 19 13 22
24 20 57 -3 45 -25 60 -48 32z"/>
<path d="M3254 7036 c-9 -24 4 -48 23 -44 12 2 18 12 18 28 0 29 -32 41 -41
16z"/>
<path d="M6560 6679 c0 -36 -2 -40 -15 -29 -23 19 -18 -4 5 -25 19 -17 21 -17
40 0 23 21 28 44 5 25 -13 -11 -15 -7 -15 29 0 22 -4 41 -10 41 -5 0 -10 -19
-10 -41z"/>
<path d="M6830 6635 l0 -75 38 0 c50 0 72 24 72 78 0 48 -25 72 -77 72 l-33 0
0 -75z m80 45 c11 -11 20 -31 20 -45 0 -14 -9 -34 -20 -45 -11 -11 -31 -20
-45 -20 -24 0 -25 3 -25 58 0 32 3 62 7 65 13 13 43 7 63 -13z"/>
<path d="M7390 6635 c0 -43 4 -75 10 -75 6 0 10 32 10 75 0 43 -4 75 -10 75
-6 0 -10 -32 -10 -75z"/>
<path d="M7770 6686 c0 -23 -3 -24 -35 -19 -30 5 -36 2 -46 -21 -9 -19 -10
-35 -3 -54 8 -23 15 -27 52 -27 l42 -1 0 73 c0 40 -2 73 -5 73 -3 0 -5 -11 -5
-24z m-9 -47 c16 -31 -4 -71 -34 -67 -39 5 -37 88 2 88 11 0 25 -10 32 -21z"/>
<path d="M6978 6645 c-17 -38 0 -79 35 -83 50 -6 73 39 47 89 -16 29 -67 26
-82 -6z m73 -6 c8 -16 8 -28 0 -45 -23 -51 -81 -13 -61 40 12 32 45 34 61 5z"/>
<path d="M7093 6656 c3 -8 11 -32 18 -55 7 -23 16 -41 20 -41 5 0 14 19 20 43
l12 42 13 -30 c7 -16 13 -36 14 -42 0 -7 4 -13 9 -13 10 0 43 101 36 109 -6 5
-25 -45 -25 -65 0 -31 -19 -12 -25 27 -8 49 -26 47 -41 -7 l-12 -39 -11 28
c-6 16 -11 35 -11 43 0 8 -5 14 -11 14 -6 0 -9 -6 -6 -14z"/>
<path d="M7272 6610 c1 -49 2 -50 5 -13 8 79 63 87 63 8 0 -25 5 -45 10 -45
13 0 13 66 0 91 -8 14 -20 18 -45 16 l-35 -2 2 -55z"/>
<path d="M7452 6658 c-17 -17 -15 -73 2 -87 25 -21 69 -9 80 21 18 52 -45 103
-82 66z m64 -22 c9 -36 1 -60 -19 -64 -24 -5 -47 16 -47 42 0 46 55 65 66 22z"/>
<path d="M7576 6661 c-3 -5 9 -8 27 -7 40 1 46 -27 5 -32 -32 -4 -51 -24 -42
-46 5 -12 17 -16 45 -14 38 2 39 3 39 39 0 21 -3 44 -6 53 -7 17 -59 22 -68 7z
m64 -59 c0 -14 -23 -32 -42 -32 -11 0 -18 7 -18 20 0 16 7 20 30 20 17 0 30
-4 30 -8z"/>
<path d="M6461 6597 c-1 -32 3 -39 25 -47 14 -6 52 -10 84 -10 86 0 110 12
109 52 l-1 33 -7 -30 -6 -30 -95 0 -95 0 -6 35 -6 35 -2 -38z"/>
<path d="M4952 5979 c-23 -12 -52 -35 -65 -53 l-22 -31 -3 -1085 c-1 -597 0
-1095 3 -1108 9 -37 74 -101 113 -112 51 -14 2953 -14 3004 0 39 11 104 75
113 112 3 13 4 511 3 1108 l-3 1085 -23 33 c-13 18 -41 41 -62 52 -39 20 -65
20 -1527 20 l-1488 0 -43 -21z m3053 -15 c25 -13 47 -36 62 -64 l23 -43 0
-1062 c0 -1166 3 -1105 -60 -1158 -17 -15 -45 -29 -63 -32 -18 -3 -699 -4
-1514 -3 -1478 3 -1482 3 -1510 24 -15 11 -38 40 -50 64 l-23 44 0 1051 c0
658 4 1063 10 1085 12 42 65 97 106 110 16 5 681 8 1504 7 1472 -2 1475 -2
1515 -23z"/>
<path d="M5152 5618 c-15 -15 -17 -291 -2 -319 10 -18 23 -19 213 -19 145 0
206 3 215 12 8 8 12 59 12 163 0 104 -4 155 -12 163 -9 9 -70 12 -213 12 -143
0 -204 -3 -213 -12z m408 -43 l0 -35 -195 0 -195 0 0 35 0 35 195 0 195 0 0
-35z m0 -180 l0 -85 -195 0 -195 0 0 85 0 85 195 0 195 0 0 -85z"/>
<path d="M5172 4817 c-16 -16 -22 -36 -22 -66 0 -54 33 -91 84 -91 48 0 65 8
82 41 19 37 1 39 -32 4 -27 -30 -53 -32 -85 -7 -15 13 -22 30 -22 52 0 22 7
39 22 52 30 23 46 23 71 -2 11 -11 25 -20 30 -20 16 0 12 18 -10 40 -29 29
-90 27 -118 -3z"/>
<path d="M5690 4810 c0 -28 -2 -29 -30 -23 -40 8 -70 -19 -70 -62 0 -46 26
-65 83 -63 l47 2 0 88 c0 72 -3 88 -15 88 -10 0 -15 -10 -15 -30z m-12 -52
c16 -16 15 -53 -3 -68 -18 -15 -52 -4 -60 20 -13 43 33 78 63 48z"/>
<path d="M6743 4813 c-4 -10 -11 -22 -17 -26 -8 -6 -7 -10 2 -14 6 -2 12 -20
12 -39 0 -20 5 -44 10 -55 13 -23 52 -25 70 -4 16 20 5 32 -14 16 -23 -19 -36
-4 -36 40 0 35 3 39 25 39 14 0 25 5 25 10 0 6 -11 10 -25 10 -18 0 -25 5 -25
20 0 25 -18 26 -27 3z"/>
<path d="M5354 4776 c-26 -19 -10 -33 20 -16 24 13 56 8 56 -8 0 -4 -19 -12
-42 -18 -39 -8 -43 -12 -43 -39 0 -25 4 -30 28 -33 16 -2 35 2 43 9 10 8 14 8
14 0 0 -6 5 -11 10 -11 14 0 12 104 -2 118 -16 16 -60 15 -84 -2z m76 -64 c0
-14 -23 -32 -41 -32 -24 0 -35 20 -18 31 18 11 59 12 59 1z"/>
<path d="M5480 4725 c0 -74 17 -89 22 -19 2 33 9 50 22 58 14 8 20 8 23 -1 3
-7 11 -13 19 -13 12 0 12 4 4 20 -12 22 -40 26 -58 8 -9 -9 -12 -9 -12 0 0 7
-4 12 -10 12 -6 0 -10 -28 -10 -65z"/>
<path d="M5810 4700 c0 -53 4 -90 10 -90 6 0 10 16 10 35 0 32 2 34 20 23 28
-18 72 1 84 35 20 56 -46 113 -90 76 -10 -8 -14 -8 -14 0 0 6 -4 11 -10 11 -6
0 -10 -37 -10 -90z m88 58 c17 -17 15 -53 -3 -68 -12 -10 -21 -10 -40 -2 -29
13 -33 43 -9 66 19 19 36 20 52 4z"/>
<path d="M5965 4770 c-16 -17 -16 -20 -2 -20 9 0 19 5 22 10 10 16 55 12 55
-5 0 -9 -9 -15 -24 -15 -13 0 -34 -9 -47 -19 -20 -16 -22 -23 -13 -38 8 -13
24 -18 63 -19 l51 -1 0 44 c0 25 -5 53 -10 64 -14 26 -71 26 -95 -1z m73 -67
c-4 -22 -58 -31 -58 -10 0 20 10 27 37 27 18 0 24 -5 21 -17z"/>
<path d="M6090 4742 c0 -63 17 -86 58 -80 34 5 39 -1 20 -20 -15 -15 -54 -16
-63 -2 -4 6 -11 8 -16 4 -20 -12 14 -34 52 -34 53 0 69 26 69 112 0 53 -3 68
-14 68 -11 0 -16 -15 -18 -52 -3 -49 -5 -53 -28 -53 -23 0 -25 4 -28 53 -2 37
-7 52 -18 52 -10 0 -14 -13 -14 -48z"/>
<path d="M6230 4723 c0 -49 3 -63 15 -63 11 0 15 12 15 49 0 36 4 51 16 55 27
10 44 -13 44 -60 0 -24 5 -44 10 -44 6 0 10 20 10 44 0 46 19 72 45 62 11 -4
15 -20 15 -56 0 -38 4 -50 15 -50 19 0 21 102 2 118 -7 6 -52 10 -100 9 l-87
-1 0 -63z"/>
<path d="M6474 4782 c-54 -36 -25 -122 41 -122 18 0 38 7 45 15 16 20 5 32
-14 16 -20 -17 -60 -10 -64 12 -3 14 4 17 42 17 38 0 46 3 46 18 0 38 -62 67
-96 44z m64 -29 c2 -9 -8 -13 -33 -13 -33 0 -36 2 -25 15 15 18 51 16 58 -2z"/>
<path d="M6592 4728 c4 -74 28 -96 28 -25 0 83 57 93 62 11 2 -27 8 -49 16
-52 16 -5 17 99 0 116 -15 15 -50 16 -65 1 -8 -8 -13 -8 -17 0 -17 27 -27 7
-24 -51z"/>
<path d="M1885 5630 c-49 -27 -91 -54 -93 -59 -3 -8 60 -11 198 -11 144 0 201
3 198 11 -5 15 -176 109 -197 108 -9 0 -56 -23 -106 -49z m180 -10 l70 -40
-139 0 c-77 0 -136 3 -132 7 8 8 117 70 126 72 3 0 37 -17 75 -39z"/>
<path d="M1862 5428 c4 -119 23 -121 23 -1 0 62 -4 88 -13 91 -10 3 -12 -17
-10 -90z"/>
<path d="M1985 5508 c-10 -25 -1 -173 10 -171 13 4 19 163 6 176 -7 7 -12 5
-16 -5z"/>
<path d="M2100 5431 c0 -50 5 -93 10 -96 6 -4 10 28 10 89 0 57 -4 96 -10 96
-6 0 -10 -36 -10 -89z"/>
<path d="M1795 5290 c-3 -6 0 -12 7 -15 25 -10 388 0 391 10 3 14 -389 19
-398 5z"/>
<path d="M3076 4834 c-9 -8 -16 -21 -16 -29 0 -7 -6 -16 -12 -19 -10 -5 -10
-7 0 -12 7 -3 12 -26 12 -60 0 -41 4 -54 15 -54 12 0 15 13 15 55 0 52 1 55
25 55 14 0 25 5 25 10 0 6 -11 10 -25 10 -15 0 -25 6 -25 14 0 22 19 30 36 15
19 -16 30 -4 14 16 -16 19 -44 19 -64 -1z"/>
<path d="M1800 4750 l0 -90 44 0 c68 0 96 14 96 48 0 15 -5 33 -11 39 -8 8 -8
13 0 17 18 12 12 44 -11 60 -13 9 -43 16 -70 16 l-48 0 0 -90z m105 50 c11
-18 -15 -40 -46 -40 -24 0 -29 4 -29 25 0 22 4 25 34 25 19 0 38 -5 41 -10z
m0 -85 c0 -16 -8 -21 -37 -23 -35 -3 -38 -1 -38 23 0 24 3 26 38 23 29 -2 37
-7 37 -23z"/>
<path d="M2240 4750 c0 -90 12 -119 24 -58 l6 32 29 -35 c34 -40 52 -33 22 9
-26 37 -26 40 1 69 31 33 1 30 -34 -4 l-28 -27 0 52 c0 29 -4 52 -10 52 -6 0
-10 -37 -10 -90z"/>
<path d="M2440 4810 c0 -11 -7 -20 -15 -20 -19 0 -20 -16 -1 -23 10 -4 16 -24
18 -54 3 -48 3 -48 38 -48 27 0 36 5 39 20 3 17 1 18 -13 6 -27 -22 -46 -6
-46 39 0 38 2 40 31 40 17 0 28 4 24 10 -3 6 -17 10 -31 10 -17 0 -24 5 -24
20 0 11 -4 20 -10 20 -5 0 -10 -9 -10 -20z"/>
<path d="M1970 4775 c-18 -22 -4 -31 24 -15 26 13 56 8 56 -10 0 -5 -13 -10
-29 -10 -16 0 -39 -8 -51 -18 -19 -16 -21 -22 -11 -40 13 -24 59 -30 79 -10 9
9 12 9 12 0 0 -7 5 -12 10 -12 14 0 12 104 -2 118 -17 17 -73 15 -88 -3z m80
-63 c0 -14 -23 -32 -41 -32 -24 0 -35 20 -18 31 18 11 59 12 59 1z"/>
<path d="M2100 4725 c0 -37 4 -65 10 -65 6 0 10 19 10 43 0 46 13 67 41 67 21
0 29 -20 29 -71 0 -21 5 -39 10 -39 14 0 12 104 -2 118 -7 7 -21 12 -33 12
-12 0 -26 -5 -33 -12 -9 -9 -12 -9 -12 0 0 7 -4 12 -10 12 -6 0 -10 -28 -10
-65z"/>
<path d="M2540 4725 c0 -37 4 -65 10 -65 6 0 10 16 10 36 0 19 5 44 10 55 11
20 40 27 40 9 0 -5 7 -10 15 -10 13 0 14 4 5 20 -12 22 -40 26 -58 8 -9 -9
-12 -9 -12 0 0 7 -4 12 -10 12 -6 0 -10 -28 -10 -65z"/>
<path d="M2660 4775 c-18 -22 -4 -31 24 -15 24 13 56 8 56 -8 0 -4 -19 -12
-42 -18 -34 -7 -44 -14 -46 -33 -5 -31 12 -41 71 -39 l47 1 0 47 c0 33 -5 52
-18 63 -23 21 -75 22 -92 2z m78 -67 c-7 -19 -34 -32 -53 -24 -14 5 -15 9 -5
21 15 18 63 20 58 3z"/>
<path d="M2790 4722 c0 -46 3 -63 13 -60 6 3 13 25 15 51 2 35 8 47 22 52 31
10 40 -3 40 -56 0 -63 23 -63 28 -1 5 66 -9 82 -68 80 l-50 -2 0 -64z"/>
<path d="M2942 4778 c-16 -16 -15 -48 1 -52 6 -3 24 -7 40 -10 33 -8 37 -36 4
-36 -13 0 -28 5 -34 11 -6 6 -17 9 -23 7 -24 -8 20 -38 54 -38 66 0 74 64 10
76 -19 3 -37 10 -40 15 -9 15 27 23 46 11 22 -13 34 -4 19 15 -14 16 -61 17
-77 1z"/>
<path d="M3166 4775 c-42 -43 -18 -107 43 -113 34 -4 65 14 55 30 -4 6 -10 6
-17 -1 -18 -18 -55 -13 -67 9 -10 19 -8 20 40 20 42 0 50 3 50 18 0 44 -72 69
-104 37z m72 -22 c2 -9 -8 -13 -33 -13 -33 0 -36 2 -25 15 15 18 51 16 58 -2z"/>
<path d="M3290 4723 c0 -49 3 -63 15 -63 11 0 15 12 15 50 0 54 17 73 45 50
19 -15 28 -9 19 13 -4 12 -17 16 -50 15 l-44 -2 0 -63z"/>
<path d="M1820 3216 c-211 -57 -349 -267 -311 -473 26 -144 103 -248 229 -310
l76 -38 2965 -3 c2697 -2 2970 -1 3021 14 112 32 210 115 262 223 31 62 33 71
33 181 0 111 -1 118 -34 182 -42 85 -119 159 -208 201 l-68 32 -2960 2 c-2316
1 -2970 -1 -3005 -11z m2710 -286 c15 -16 33 -30 39 -30 6 0 20 -9 31 -20 17
-17 20 -33 20 -98 0 -118 -5 -122 -145 -122 -140 0 -145 4 -145 122 0 65 3 81
20 98 11 11 25 20 31 20 6 0 24 14 39 30 18 19 38 30 55 30 17 0 37 -11 55
-30z m401 -51 c15 -15 19 -28 14 -47 -10 -41 -24 -52 -66 -52 -38 0 -39 -1
-39 -35 0 -24 -5 -35 -15 -35 -12 0 -15 17 -15 95 l0 95 50 0 c37 0 55 -5 71
-21z m147 -41 c7 -7 12 -38 12 -71 0 -53 -2 -59 -19 -54 -10 2 -26 0 -35 -5
-24 -14 -68 17 -64 44 3 23 19 34 61 43 15 3 27 10 27 16 0 16 -31 23 -51 11
-24 -15 -29 -15 -29 2 0 8 6 17 13 19 23 10 73 7 85 -5z m82 -42 c18 -54 20
-53 40 12 7 23 19 42 27 42 16 0 16 -9 0 -51 -8 -19 -22 -55 -31 -82 -18 -47
-47 -74 -68 -61 -7 4 -2 13 13 25 l24 18 -27 76 c-24 65 -25 76 -11 73 9 -2
23 -24 33 -52z"/>
<path d="M4440 2915 c-11 -13 -6 -15 35 -15 41 0 46 2 35 15 -7 8 -23 15 -35
15 -12 0 -28 -7 -35 -15z"/>
<path d="M4364 2857 c-3 -8 -4 -49 -2 -93 l3 -79 110 0 110 0 3 93 3 92 -111
0 c-83 0 -112 -3 -116 -13z m140 -32 c10 -11 14 -26 10 -48 -10 -55 -13 -58
-41 -55 -25 3 -28 7 -31 46 -5 64 27 92 62 57z"/>
<path d="M4466 2783 c8 -34 14 -42 14 -20 0 8 3 22 6 31 4 11 1 16 -10 16 -13
0 -15 -6 -10 -27z"/>
<path d="M4840 2835 c0 -32 3 -35 29 -35 35 0 55 22 46 50 -5 15 -15 20 -41
20 -32 0 -34 -2 -34 -35z"/>
<path d="M5004 2759 c-3 -6 -2 -15 4 -21 15 -15 46 -5 50 15 3 12 -3 17 -22
17 -14 0 -28 -5 -32 -11z"/>
<path d="M4820 1840 c0 -81 2 -90 19 -90 14 0 19 10 24 45 5 52 10 60 32 52
10 -5 15 -20 15 -52 0 -38 3 -45 20 -45 17 0 20 7 20 46 0 25 -5 54 -10 65
-13 23 -47 25 -71 3 -16 -15 -17 -13 -12 25 5 37 3 41 -16 41 -20 0 -21 -5
-21 -90z"/>
<path d="M5930 1840 c0 -82 2 -90 19 -90 17 0 20 8 23 48 2 34 7 47 18 47 11
0 16 -13 18 -47 3 -40 6 -48 23 -48 18 0 20 6 17 63 -3 56 -5 62 -26 65 -13 2
-32 -4 -43 -14 -19 -18 -20 -17 -13 24 6 38 5 42 -15 42 -20 0 -21 -5 -21 -90z"/>
<path d="M5700 1895 c0 -8 -4 -15 -10 -15 -5 0 -10 -7 -10 -15 0 -8 5 -15 10
-15 6 0 10 -14 10 -31 0 -46 16 -69 50 -69 20 0 30 5 30 15 0 8 -7 15 -15 15
-23 0 -32 50 -11 65 22 17 20 35 -4 35 -13 0 -18 5 -14 15 4 10 0 15 -15 15
-12 0 -21 -6 -21 -15z"/>
<path d="M3570 1825 c0 -43 4 -75 10 -75 6 0 10 11 10 25 0 21 5 25 29 25 33
0 61 23 61 49 0 28 -33 51 -73 51 l-37 0 0 -75z m75 25 c0 -20 -6 -26 -27 -28
-25 -3 -28 0 -28 28 0 28 3 31 28 28 21 -2 27 -8 27 -28z"/>
<path d="M4400 1875 c0 -22 -3 -25 -25 -19 -36 9 -55 -11 -55 -57 0 -43 26
-67 58 -51 9 5 23 7 30 5 9 -4 12 15 12 71 0 44 -4 76 -10 76 -5 0 -10 -11
-10 -25z m-4 -61 c8 -31 -14 -58 -39 -48 -17 6 -24 54 -10 67 16 16 43 6 49
-19z"/>
<path d="M4510 1826 c0 -65 2 -75 18 -74 9 0 24 -2 33 -6 24 -10 49 20 49 58
0 40 -21 60 -55 54 -21 -4 -25 -1 -25 18 0 13 -4 24 -10 24 -6 0 -10 -31 -10
-74z m78 -22 c4 -37 -23 -54 -46 -30 -22 22 -8 68 21 64 16 -2 23 -11 25 -34z"/>
<path d="M4977 1862 c-22 -25 -21 -75 1 -95 25 -23 78 -21 102 3 24 24 26 57
4 88 -20 28 -83 31 -107 4z m77 -34 c8 -14 7 -22 -7 -35 -16 -16 -18 -16 -33
-1 -10 10 -14 23 -9 37 8 25 33 24 49 -1z"/>
<path d="M5110 1790 c0 -83 1 -90 20 -90 15 0 20 7 20 29 0 28 2 29 33 24 24
-3 39 0 50 12 19 19 22 66 7 96 -13 24 -57 25 -82 2 -18 -16 -18 -16 -12 0 4
13 1 17 -15 17 -20 0 -21 -5 -21 -90z m95 25 c0 -23 -5 -30 -19 -30 -28 0 -43
29 -26 50 21 25 45 14 45 -20z"/>
<path d="M5276 1864 c-9 -8 -16 -19 -16 -24 0 -13 42 -40 62 -40 10 0 18 -5
18 -11 0 -7 -12 -9 -35 -5 -27 5 -35 4 -35 -7 0 -31 78 -37 103 -9 10 10 17
21 17 25 0 14 -34 37 -56 37 -13 0 -24 5 -24 10 0 7 13 8 35 4 36 -6 44 3 23
24 -17 17 -74 15 -92 -4z"/>
<path d="M5412 1868 c-27 -34 -21 -88 12 -110 31 -21 106 4 106 35 0 11 -35 8
-47 -4 -18 -18 -43 -2 -43 26 0 27 31 48 38 27 4 -14 52 -17 52 -4 0 34 -95
58 -118 30z"/>
<path d="M5557 1862 c-22 -25 -21 -75 1 -95 19 -17 68 -22 88 -9 37 24 39 93
4 112 -30 16 -75 12 -93 -8z m72 -26 c9 -11 10 -20 1 -36 -13 -25 -43 -23 -48
3 -8 42 23 63 47 33z"/>
<path d="M5809 1870 c-34 -20 -31 -88 5 -112 31 -21 106 4 106 35 0 11 -35 8
-47 -4 -18 -18 -43 -2 -43 26 0 27 31 48 38 27 4 -14 52 -17 52 -4 0 33 -74
54 -111 32z"/>
<path d="M3712 1848 c-22 -22 -15 -76 13 -94 23 -15 27 -15 50 0 18 12 25 25
25 49 0 40 -15 57 -50 57 -14 0 -31 -5 -38 -12z m66 -39 c4 -34 -22 -57 -43
-39 -16 13 -20 51 -8 64 16 16 48 1 51 -25z"/>
<path d="M3820 1853 c0 -5 6 -28 14 -53 17 -57 41 -64 50 -15 8 41 21 39 29
-5 10 -47 32 -36 49 25 12 43 13 55 3 55 -7 0 -16 -16 -19 -35 -8 -41 -21 -39
-29 5 -9 44 -32 37 -44 -12 l-9 -43 -13 43 c-6 23 -16 42 -21 42 -6 0 -10 -3
-10 -7z"/>
<path d="M4007 1842 c-10 -10 -17 -28 -17 -40 0 -23 32 -62 51 -62 19 0 50 21
44 30 -4 6 -14 5 -25 -2 -14 -9 -22 -9 -34 1 -22 19 -10 31 30 31 26 0 34 4
34 18 0 41 -54 57 -83 24z m61 -19 c2 -8 -6 -13 -22 -13 -17 0 -26 5 -26 16 0
19 41 16 48 -3z"/>
<path d="M4120 1803 c0 -29 5 -53 10 -53 6 0 10 18 10 41 0 32 4 42 20 46 30
8 24 22 -10 21 -29 -1 -30 -2 -30 -55z"/>
<path d="M4206 1844 c-22 -21 -20 -60 4 -84 24 -24 39 -25 66 -6 25 18 12 31
-14 15 -16 -10 -23 -10 -36 0 -22 19 -10 31 30 31 26 0 34 4 34 18 0 40 -54
57 -84 26z m64 -19 c0 -9 -9 -15 -25 -15 -16 0 -25 6 -25 15 0 9 9 15 25 15
16 0 25 -6 25 -15z"/>
<path d="M4630 1856 c0 -3 10 -31 21 -62 21 -55 21 -58 4 -71 -21 -15 -16 -26
8 -17 14 5 38 57 62 133 5 17 4 22 -6 19 -8 -3 -18 -21 -23 -41 -5 -20 -12
-37 -16 -37 -4 0 -11 17 -16 37 -5 20 -15 38 -21 41 -7 2 -13 1 -13 -2z"/>
</g>
</svg>
